<svg width="1629" height="589" viewBox="0 0 1629 589" fill="none" xmlns="http://www.w3.org/2000/svg">
<path opacity="0.3" fill-rule="evenodd" clip-rule="evenodd" d="M1565.3 49.9707C1533.1 33.3667 1475.44 12.6322 1407.05 4.3489C1338.66 -3.93474 1259.52 0.22992 1184.37 33.4622C1160.87 43.8582 1144.69 56.3199 1133.88 70.2169C1123.07 84.1165 1117.65 99.4245 1115.6 115.477C1112.09 143.087 1118.56 172.951 1124.79 201.675C1125.8 206.307 1126.79 210.91 1127.74 215.469C1131.16 231.905 1133.95 247.775 1134.11 262.462C1134.28 277.145 1131.83 290.612 1124.82 302.259C1110.81 325.538 1078.41 341.771 1011.39 345.608C910.526 351.382 840.646 323.446 781.441 299.778L781.44 299.778C761.999 292.006 743.71 284.695 725.852 279.188C689.735 268.05 655.404 264.319 617.002 279.23C578.625 294.13 536.244 327.624 483.953 390.78C431.732 453.852 387.364 473.264 347.266 468.598C307.109 463.925 271.054 435.095 235.486 401.203C226.894 393.016 218.332 384.535 209.749 376.033L209.749 376.033C182.849 349.387 155.754 322.548 126.956 303.99C107.949 291.741 88.1676 283.076 67.1708 280.446C46.1669 277.815 23.9782 281.227 0.169057 293.083L0.61481 293.978C24.2595 282.204 46.2507 278.833 67.0465 281.438C87.8495 284.044 107.488 292.634 126.414 304.83C155.115 323.326 182.104 350.058 208.985 376.686C217.582 385.201 226.168 393.706 234.796 401.927C270.352 435.807 306.625 464.875 347.151 469.591C387.735 474.314 432.404 454.607 484.723 391.418C536.971 328.314 579.22 294.972 617.364 280.162C655.482 265.362 689.565 269.044 725.557 280.143C743.314 285.619 761.541 292.906 780.941 300.662C840.174 324.343 910.338 352.394 1011.45 346.606C1078.53 342.766 1111.39 326.507 1125.68 302.775C1132.82 290.916 1135.28 277.247 1135.11 262.451C1134.94 247.659 1132.14 231.708 1128.72 215.265C1127.78 210.723 1126.78 206.143 1125.79 201.539L1125.76 201.437C1119.53 172.699 1113.1 143.028 1116.6 115.603C1118.62 99.699 1123.99 84.5672 1134.67 70.8309C1145.36 57.0921 1161.39 44.7218 1184.78 34.3767C1259.71 1.23714 1338.66 -2.92712 1406.93 5.34164C1475.2 13.6107 1532.75 34.31 1564.85 50.8595L1565.3 49.9707ZM1427.99 43.8641C1496.38 52.1475 1554.04 72.8819 1586.25 89.4859L1585.79 90.3747C1553.69 73.8252 1496.14 53.126 1427.87 44.8569C1359.6 36.5881 1280.65 40.7524 1205.72 73.892C1182.33 84.2371 1166.3 96.6074 1155.62 110.346C1144.93 124.082 1139.56 139.214 1137.54 155.119C1134.04 182.543 1140.47 212.214 1146.71 240.953L1146.73 241.055L1146.75 241.18C1147.74 245.741 1148.73 250.279 1149.66 254.78C1153.09 271.223 1155.89 287.175 1156.05 301.966C1156.22 316.762 1153.76 330.431 1146.62 342.29C1132.33 366.022 1099.47 382.281 1032.39 386.121C931.28 391.91 861.115 363.858 801.882 340.177C782.483 332.421 764.256 325.134 746.499 319.659C710.507 308.56 676.424 304.877 638.305 319.677C600.161 334.487 557.913 367.829 505.664 430.933C453.346 494.123 408.677 513.829 368.092 509.106C327.567 504.39 291.293 475.322 255.737 441.442C247.11 433.221 238.524 424.716 229.927 416.201C203.045 389.574 176.057 362.841 147.356 344.346C128.43 332.15 108.791 323.559 87.988 320.953C67.1922 318.348 45.2009 321.719 21.5563 333.493L21.1105 332.598C44.9197 320.742 67.1084 317.33 88.1123 319.961C109.109 322.592 128.89 331.257 147.897 343.505C176.695 362.063 203.791 388.903 230.69 415.548L230.691 415.548C239.273 424.05 247.836 432.532 256.427 440.718C291.996 474.61 328.051 503.44 368.208 508.113C408.306 512.779 452.673 493.367 504.894 430.295C557.186 367.139 599.566 333.646 637.943 318.745C676.345 303.835 710.676 307.565 746.793 318.703C764.651 324.21 782.941 331.521 802.381 339.293L802.382 339.293C861.587 362.962 931.468 390.897 1032.33 385.123C1099.35 381.286 1131.75 365.053 1145.76 341.774C1152.77 330.127 1155.22 316.66 1155.05 301.978C1154.89 287.29 1152.11 271.42 1148.68 254.984C1147.74 250.425 1146.74 245.822 1145.73 241.19C1139.5 212.466 1133.03 182.603 1136.55 154.992C1138.59 138.94 1144.01 123.632 1154.83 109.732C1165.64 95.8351 1181.81 83.3735 1205.32 72.9774C1280.46 39.7452 1359.6 35.5805 1427.99 43.8641ZM1607.19 129.001C1574.98 112.397 1517.32 91.6627 1448.93 83.3794C1380.54 75.0958 1301.4 79.2604 1226.26 112.493C1202.75 122.889 1186.58 135.35 1175.77 149.247C1164.96 163.147 1159.53 178.455 1157.49 194.508C1153.97 222.118 1160.44 251.982 1166.67 280.705C1167.68 285.338 1168.68 289.94 1169.63 294.499C1173.05 310.935 1175.83 326.805 1176 341.493C1176.16 356.176 1173.71 369.642 1166.7 381.289C1152.69 404.568 1120.3 420.801 1053.27 424.638C952.409 430.413 882.529 402.477 823.324 378.809L823.323 378.808C803.882 371.037 785.592 363.725 767.735 358.218C731.618 347.081 697.287 343.35 658.885 358.26C620.508 373.161 578.127 406.654 525.836 469.811C473.614 532.882 429.247 552.294 389.149 547.628C348.992 542.955 312.937 514.125 277.369 480.233C268.777 472.047 260.214 463.565 251.632 455.063C224.732 428.418 197.637 401.578 168.839 383.02C149.832 370.772 130.051 362.107 109.054 359.476C88.0498 356.845 65.8612 360.257 42.052 372.113L42.4977 373.008C66.1424 361.234 88.1337 357.864 108.929 360.469C129.732 363.075 149.371 371.665 168.297 383.861C196.998 402.356 223.987 429.089 250.868 455.716C259.465 464.232 268.051 472.736 276.679 480.957C312.235 514.838 348.508 543.906 389.034 548.622C429.618 553.344 474.287 533.638 526.606 470.449C578.854 407.344 621.102 374.003 659.247 359.193C697.365 344.392 731.448 348.075 767.44 359.174C785.197 364.65 803.424 371.937 822.824 379.692C882.057 403.373 952.221 431.425 1053.33 425.637C1120.42 421.796 1153.27 405.537 1167.56 381.805C1174.7 369.946 1177.16 356.277 1177 341.481C1176.83 326.69 1174.03 310.738 1170.61 294.296C1169.66 289.753 1168.67 285.173 1167.67 280.569L1167.65 280.468C1161.42 251.73 1154.98 222.059 1158.48 194.634C1160.51 178.729 1165.87 163.598 1176.56 149.861C1187.24 136.123 1203.27 123.752 1226.66 113.407C1301.59 80.2676 1380.55 76.1034 1448.81 84.3721C1517.08 92.6412 1574.63 113.34 1606.73 129.89L1607.19 129.001ZM1628.13 168.516C1595.92 151.912 1538.26 131.178 1469.87 122.895C1401.48 114.611 1322.34 118.776 1247.2 152.008C1223.69 162.404 1207.52 174.866 1196.71 188.763C1185.9 202.662 1180.47 217.97 1178.43 234.023C1174.91 261.633 1181.39 291.497 1187.62 320.22C1188.62 324.853 1189.62 329.456 1190.57 334.015C1193.99 350.45 1196.77 366.321 1196.94 381.008C1197.1 395.691 1194.66 409.157 1187.64 420.805C1173.63 444.084 1141.24 460.317 1074.22 464.153C973.351 469.928 903.47 441.992 844.265 418.324L844.264 418.323C824.824 410.552 806.534 403.24 788.676 397.734C752.559 386.596 718.228 382.865 679.826 397.776C641.449 412.676 599.069 446.17 546.777 509.326C494.556 572.397 450.189 591.81 410.091 587.143C369.934 582.47 333.879 553.641 298.31 519.749C289.722 511.565 281.163 503.087 272.584 494.589L272.575 494.58L272.573 494.579C245.674 467.933 218.578 441.093 189.78 422.536C170.773 410.287 150.992 401.622 129.995 398.992C108.991 396.36 86.8026 399.772 62.9935 411.628L63.4392 412.523C87.0839 400.749 109.075 397.379 129.871 399.984C150.674 402.59 170.313 411.18 189.239 423.376C217.94 441.872 244.928 468.604 271.81 495.231C280.407 503.747 288.992 512.251 297.62 520.472C333.176 554.353 369.45 583.421 409.975 588.137C450.56 592.86 495.229 573.153 547.547 509.964C599.796 446.86 642.044 413.518 680.188 398.708C718.307 383.908 752.39 387.59 788.382 398.689C806.139 404.165 824.366 411.452 843.765 419.208C902.998 442.889 973.163 470.94 1074.27 465.152C1141.36 461.311 1174.21 445.053 1188.5 421.32C1195.64 409.462 1198.11 395.793 1197.94 380.997C1197.77 366.205 1194.97 350.253 1191.55 333.811C1190.6 329.268 1189.61 324.688 1188.61 320.084L1188.59 319.983C1182.36 291.245 1175.93 261.574 1179.42 234.149C1181.45 218.245 1186.81 203.113 1197.5 189.377C1208.19 175.638 1224.21 163.268 1247.6 152.922C1322.53 119.783 1401.49 115.619 1469.75 123.887C1538.02 132.156 1595.57 152.856 1627.67 169.405L1628.13 168.516Z" fill="url(#paint0_linear_6_2)"/>
<defs>
<linearGradient id="paint0_linear_6_2" x1="225.244" y1="257.382" x2="1306.47" y2="73.847" gradientUnits="userSpaceOnUse">
<stop stop-color="#150544"/>
<stop offset="0.505208" stop-color="white"/>
<stop offset="0.979167" stop-color="#6552FF"/>
</linearGradient>
</defs>
</svg>
