<svg width="1554" height="584" viewBox="0 0 1554 584" fill="none" xmlns="http://www.w3.org/2000/svg">
<path opacity="0.5" fill-rule="evenodd" clip-rule="evenodd" d="M1540.58 370.348C1517.08 342.765 1471.6 301.699 1411.47 268.084C1351.34 234.468 1276.54 208.287 1194.4 210.519C1168.71 211.217 1149.02 216.609 1133.74 225.364C1118.47 234.121 1107.64 246.226 1099.65 260.302C1085.92 284.511 1080.58 314.599 1075.44 343.538C1074.62 348.205 1073.79 352.843 1072.94 357.421C1069.87 373.925 1066.42 389.664 1061 403.316C1055.58 416.964 1048.21 428.494 1037.3 436.609C1015.5 452.829 979.372 455.555 915.908 433.672C820.396 400.738 766.344 348.373 720.549 304.008L720.548 304.008C705.511 289.44 691.364 275.735 676.931 263.863C647.742 239.853 617.395 223.373 576.207 222.596C535.046 221.818 483.126 236.724 410.779 275.312C338.53 313.849 290.115 314.973 254.787 295.439C219.407 275.877 196.989 235.521 176.942 190.667C172.1 179.832 167.397 168.736 162.683 157.613L162.682 157.613C147.906 122.752 133.023 87.638 113.421 59.5402C100.484 40.995 85.4708 25.4716 67.0427 15.0701C48.6084 4.6651 26.7847 -0.598506 0.25739 1.33556L0.330107 2.33292C26.6742 0.412215 48.2995 5.63906 66.5512 15.941C84.8091 26.2464 99.719 41.6464 112.601 60.1123C132.137 88.116 146.962 123.09 161.728 157.927C166.451 169.068 171.167 180.194 176.03 191.075C196.069 235.914 218.599 276.572 254.303 296.314C290.059 316.085 338.865 314.803 411.25 276.195C483.537 237.638 535.277 222.823 576.188 223.595C617.072 224.367 647.208 240.708 676.296 264.635C690.647 276.44 704.745 290.099 719.751 304.636C765.566 349.024 819.838 401.603 915.582 434.617C979.105 456.521 1015.67 453.947 1037.9 437.412C1049 429.149 1056.47 417.438 1061.93 403.685C1067.39 389.936 1070.85 374.115 1073.92 357.604C1074.77 353.042 1075.59 348.428 1076.42 343.79L1076.43 343.688C1081.58 314.735 1086.88 284.842 1100.52 260.795C1108.44 246.849 1119.14 234.886 1134.24 226.232C1149.34 217.576 1168.87 212.213 1194.43 211.519C1276.33 209.293 1350.96 235.401 1410.98 268.957C1471.01 302.514 1516.4 343.504 1539.81 370.996L1540.58 370.348ZM1415.85 312.59C1475.98 346.205 1521.46 387.271 1544.96 414.854L1544.19 415.503C1520.78 388.01 1475.39 347.02 1415.36 313.463C1355.34 279.907 1280.71 253.799 1198.81 256.025C1173.24 256.72 1153.72 262.082 1138.62 270.738C1123.52 279.392 1112.82 291.356 1104.9 305.301C1091.26 329.349 1085.96 359.241 1080.81 388.194L1080.8 388.297L1080.77 388.423C1079.96 393.019 1079.15 397.59 1078.3 402.11C1075.23 418.621 1071.77 434.443 1066.31 448.191C1060.85 461.944 1053.38 473.656 1042.28 481.918C1020.05 498.454 983.485 501.028 919.961 479.124C824.217 446.109 769.946 393.53 724.13 349.143C709.125 334.605 695.027 320.947 680.676 309.142C651.588 285.215 621.452 268.874 580.568 268.102C539.657 267.329 487.916 282.144 415.63 320.701C343.245 359.31 294.439 360.591 258.683 340.82C222.978 321.079 200.449 280.42 180.409 235.581C175.547 224.701 170.83 213.574 166.108 202.433C151.342 167.597 136.517 132.622 116.981 104.619C104.099 86.1528 89.1889 70.7528 70.9309 60.4473C52.6793 50.1454 31.0539 44.9186 4.70985 46.8393L4.63713 45.8419C31.1645 43.9079 52.9882 49.1715 71.4225 59.5765C89.8506 69.978 104.864 85.5014 117.801 104.047C137.402 132.144 152.286 167.259 167.062 202.119L167.062 202.12C171.777 213.242 176.48 224.339 181.322 235.173C201.369 280.028 223.787 320.383 259.167 339.945C294.494 359.479 342.91 358.355 415.159 319.819C487.506 281.23 539.426 266.325 580.587 267.102C621.775 267.88 652.122 284.359 681.311 308.37C695.743 320.241 709.89 333.946 724.928 348.514L724.928 348.515C770.723 392.88 824.775 445.244 920.287 478.178C983.752 500.062 1019.88 497.335 1041.68 481.116C1052.59 473.001 1059.96 461.47 1065.38 447.822C1070.8 434.171 1074.25 418.431 1077.32 401.927C1078.17 397.349 1079 392.712 1079.82 388.044C1084.96 359.105 1090.3 329.018 1104.03 304.808C1112.02 290.733 1122.85 278.628 1138.12 269.871C1153.4 261.115 1173.09 255.724 1198.78 255.025C1280.92 252.793 1355.72 278.974 1415.85 312.59ZM1549.33 459.361C1525.84 431.778 1480.36 390.712 1420.23 357.097C1360.1 323.48 1285.3 297.299 1203.16 299.532C1177.47 300.23 1157.78 305.622 1142.5 314.377C1127.23 323.134 1116.4 335.239 1108.41 349.314C1094.68 373.524 1089.34 403.612 1084.2 432.551C1083.38 437.218 1082.55 441.855 1081.7 446.433C1078.63 462.938 1075.18 478.677 1069.76 492.329C1064.34 505.977 1056.97 517.507 1046.06 525.622C1024.26 541.842 988.131 544.568 924.667 522.685C829.155 489.75 775.103 437.386 729.308 393.021L729.307 393.02C714.27 378.453 700.123 364.747 685.691 352.876C656.502 328.866 626.155 312.386 584.967 311.608C543.806 310.831 491.886 325.736 419.539 364.325C347.289 402.862 298.874 403.985 263.546 384.452C228.166 364.889 205.748 324.534 185.702 279.679C180.86 268.845 176.156 257.748 171.442 246.625C156.666 211.765 141.782 176.651 122.181 148.553C109.243 130.008 94.2303 114.484 75.8022 104.083C57.3679 93.6778 35.5442 88.4142 9.01687 90.3483L9.08958 91.3457C35.4337 89.425 57.059 94.6518 75.3107 104.954C93.5686 115.259 108.479 130.659 121.361 149.125C140.896 177.129 155.721 212.103 170.488 246.94C175.21 258.08 179.926 269.207 184.789 280.087C204.829 324.926 227.358 365.585 263.062 385.327C298.819 405.098 347.625 403.816 420.009 365.207C492.296 326.651 544.037 311.835 584.948 312.608C625.832 313.38 655.968 329.721 685.056 353.648C699.407 365.453 713.505 379.112 728.51 393.649C774.326 438.036 828.597 490.616 924.341 523.63C987.865 545.534 1024.43 542.96 1046.66 526.424C1057.76 518.162 1065.23 506.451 1070.69 492.698C1076.15 478.949 1079.61 463.128 1082.68 446.616C1083.53 442.055 1084.35 437.44 1085.18 432.802L1085.19 432.701C1090.34 403.747 1095.64 373.855 1109.28 349.808C1117.19 335.862 1127.9 323.899 1143 315.245C1158.1 306.589 1177.62 301.226 1203.19 300.531C1285.09 298.305 1359.72 324.413 1419.74 357.97C1479.77 391.527 1525.16 432.517 1548.57 460.009L1549.33 459.361ZM1553.71 503.867C1530.22 476.284 1484.74 435.218 1424.61 401.603C1364.48 367.987 1289.67 341.806 1207.54 344.038C1181.85 344.736 1162.16 350.128 1146.88 358.883C1131.61 367.641 1120.78 379.745 1112.79 393.821C1099.06 418.03 1093.72 448.118 1088.58 477.057C1087.76 481.724 1086.93 486.362 1086.08 490.94C1083.01 507.444 1079.56 523.183 1074.14 536.835C1068.72 550.483 1061.35 562.013 1050.44 570.128C1028.64 586.348 992.511 589.074 929.047 567.191C833.535 534.257 779.483 481.892 733.688 437.527L733.687 437.527C718.65 422.959 704.503 409.254 690.071 397.382C660.882 373.372 630.535 356.893 589.347 356.115C548.186 355.337 496.265 370.243 423.918 408.831C351.669 447.368 303.254 448.492 267.926 428.958C232.546 409.396 210.128 369.04 190.082 324.186C185.241 313.356 180.54 302.263 175.827 291.145L175.822 291.134L175.822 291.132C161.046 256.272 146.162 221.157 126.56 193.059C113.623 174.514 98.61 158.991 80.182 148.589C61.7476 138.184 39.924 132.921 13.3966 134.855L13.4693 135.852C39.8134 133.931 61.4388 139.158 79.6904 149.46C97.9484 159.766 112.858 175.166 125.74 193.631C145.276 221.635 160.101 256.61 174.867 291.446C179.59 302.587 184.306 313.714 189.169 324.594C209.208 369.433 231.738 410.091 267.442 429.833C303.199 449.604 352.005 448.322 424.389 409.714C496.676 371.157 548.417 356.342 589.328 357.114C630.212 357.887 660.347 374.228 689.435 398.155C703.786 409.959 717.885 423.618 732.89 438.155C778.706 482.543 832.977 535.122 928.721 568.136C992.245 590.04 1028.81 587.466 1051.04 570.931C1062.14 562.668 1069.61 550.957 1075.07 537.204C1080.53 523.455 1083.99 507.634 1087.06 491.123C1087.91 486.561 1088.73 481.947 1089.56 477.308L1089.57 477.207C1094.72 448.254 1100.02 418.361 1113.66 394.314C1121.57 380.369 1132.28 368.405 1147.38 359.751C1162.48 351.095 1182 345.732 1207.57 345.038C1289.47 342.812 1364.1 368.92 1424.12 402.476C1484.15 436.033 1529.54 477.023 1552.95 504.515L1553.71 503.867Z" fill="url(#paint0_linear_8_7)"/>
<defs>
<linearGradient id="paint0_linear_8_7" x1="222.044" y1="53.7167" x2="1292.04" y2="294.217" gradientUnits="userSpaceOnUse">
<stop stop-color="#E7F6FF"/>
<stop offset="0.505208" stop-color="#150544"/>
<stop offset="0.979167" stop-color="#6552FF"/>
</linearGradient>
</defs>
</svg>
